<svg width="12" height="8" viewBox="0 0 12 8" fill="#7c7d80" xmlns="http://www.w3.org/2000/svg">
<path fill-rule="evenodd" clip-rule="evenodd" d="M0.229263 0.832901C0.37625 0.686096 0.575497 0.603638 0.783239 0.603638C0.990981 0.603638 1.19023 0.686096 1.33722 0.832901L6.00943 5.50512L10.6816 0.832901C10.8303 0.694427 11.0268 0.619041 11.2299 0.622625C11.433 0.626208 11.6268 0.708481 11.7704 0.85211C11.914 0.99574 11.9963 1.18951 11.9999 1.3926C12.0035 1.59569 11.9281 1.79225 11.7896 1.94085L6.56341 7.16705C6.41642 7.31385 6.21717 7.39631 6.00943 7.39631C5.80169 7.39631 5.60244 7.31385 5.45546 7.16705L0.229263 1.94085C0.0824587 1.79387 0 1.59462 0 1.38688C0 1.17914 0.0824587 0.979888 0.229263 0.832901Z" />
</svg>
