<svg width="26" height="32" viewBox="0 0 26 32" fill="none" xmlns="http://www.w3.org/2000/svg">
<path d="M3.2 0C1.44 0 0 1.44 0 3.2V28.8C0 30.56 1.44 32 3.2 32H22.4C24.16 32 25.6 30.56 25.6 28.8V9.6L16 0M14.4 2.4L23.2 11.2H14.4M9.408 11.6H11.392V13.104C12.496 13.088 13.408 14 13.408 15.104V18.4L13.216 18.608L14.64 21.072C15.152 20.272 15.408 19.344 15.392 18.4H17.408C17.408 20.064 16.8 21.68 15.728 22.96L18.4 27.6V29.6L16.672 28.608L14.192 24.304C13.072 25.04 11.744 25.424 10.4 25.424C9.056 25.424 7.744 25.04 6.608 24.304L4.128 28.608L2.4 29.6V27.6L7.584 18.608L7.392 18.4V15.104C7.392 14 8.304 13.088 9.408 13.104M10.4 15.104C9.296 15.104 8.736 16.448 9.52 17.232C10.304 18.016 11.648 17.472 11.648 16.352C11.648 15.664 11.088 15.104 10.4 15.104ZM9.056 20.064L7.616 22.576C9.296 23.712 11.504 23.712 13.184 22.576L11.744 20.064C10.992 20.8 9.808 20.8 9.056 20.064Z" fill="#A0A2A9"/>
</svg>
