<svg width="20" height="20" viewBox="0 0 20 20" fill="#7c7d80" xmlns="http://www.w3.org/2000/svg">
<path d="M19.6733 17.5534C19.0305 16.9802 18.4676 16.3232 18 15.6C17.4895 14.6017 17.1835 13.5115 17.1 12.3934V9.10002C17.1044 7.34376 16.4673 5.64633 15.3085 4.32666C14.1496 3.007 12.5488 2.15592 10.8067 1.93335V1.07335C10.8067 0.837307 10.7129 0.610932 10.546 0.444025C10.3791 0.277117 10.1527 0.18335 9.91666 0.18335C9.68062 0.18335 9.45424 0.277117 9.28733 0.444025C9.12043 0.610932 9.02666 0.837307 9.02666 1.07335V1.94668C7.30016 2.1853 5.71864 3.04152 4.57501 4.35675C3.43138 5.67199 2.80315 7.35711 2.80666 9.10002V12.3934C2.72316 13.5115 2.41718 14.6017 1.90666 15.6C1.44725 16.3216 0.893455 16.9785 0.259992 17.5534C0.18888 17.6158 0.131886 17.6927 0.0928035 17.7789C0.0537209 17.8651 0.0334451 17.9587 0.0333252 18.0534V18.96C0.0333252 19.1368 0.103563 19.3064 0.228587 19.4314C0.353612 19.5564 0.523181 19.6267 0.699992 19.6267H19.2333C19.4101 19.6267 19.5797 19.5564 19.7047 19.4314C19.8298 19.3064 19.9 19.1368 19.9 18.96V18.0534C19.8999 17.9587 19.8796 17.8651 19.8405 17.7789C19.8014 17.6927 19.7444 17.6158 19.6733 17.5534ZM1.41999 18.2934C2.04026 17.6942 2.58639 17.0227 3.04666 16.2934C3.68973 15.0877 4.06495 13.7574 4.14666 12.3934V9.10002C4.12022 8.31871 4.25127 7.54007 4.53202 6.81046C4.81277 6.08086 5.23747 5.41521 5.78082 4.85315C6.32418 4.2911 6.97509 3.84413 7.69478 3.53887C8.41447 3.2336 9.18824 3.07629 9.96999 3.07629C10.7517 3.07629 11.5255 3.2336 12.2452 3.53887C12.9649 3.84413 13.6158 4.2911 14.1592 4.85315C14.7025 5.41521 15.1272 6.08086 15.408 6.81046C15.6887 7.54007 15.8198 8.31871 15.7933 9.10002V12.3934C15.875 13.7574 16.2503 15.0877 16.8933 16.2934C17.3536 17.0227 17.8997 17.6942 18.52 18.2934H1.41999Z" />
</svg>
