<svg width="24" height="34" viewBox="0 0 24 34" fill="none" xmlns="http://www.w3.org/2000/svg">
<path d="M12.0146 6.5011C12.153 6.5011 12.2857 6.44614 12.3836 6.34829C12.4814 6.25044 12.5364 6.11774 12.5364 5.97936V4.41415H13.0435C13.1819 4.41415 13.3146 4.35918 13.4124 4.26133C13.5103 4.16349 13.5652 4.03078 13.5652 3.89241V0.761974C13.5652 0.6236 13.5103 0.490893 13.4124 0.393048C13.3146 0.295203 13.1819 0.240234 13.0435 0.240234L10.9565 0.240234C10.8182 0.240234 10.6855 0.295203 10.5876 0.393048C10.4898 0.490893 10.4348 0.6236 10.4348 0.761974V3.89241C10.4348 4.03078 10.4898 4.16349 10.5876 4.26133C10.6855 4.35918 10.8182 4.41415 10.9565 4.41415H11.4929V5.97936C11.4929 6.11774 11.5479 6.25044 11.6457 6.34829C11.7435 6.44614 11.8763 6.5011 12.0146 6.5011ZM11.4783 1.28371H12.5218V3.37067H11.4783V1.28371ZM0.27967 33.4406C0.34011 33.473 0.406394 33.493 0.474655 33.4995C0.542915 33.506 0.611786 33.4988 0.677251 33.4784C0.742716 33.458 0.803465 33.4248 0.855954 33.3807C0.908444 33.3366 0.951623 33.2824 0.982974 33.2215L5.46158 24.6931C7.494 25.7165 9.73806 26.249 12.0136 26.2479C14.3238 26.2479 16.5465 25.7042 18.551 24.7004L23.015 33.2215C23.0796 33.3437 23.1899 33.4354 23.3218 33.4766C23.4537 33.5179 23.5966 33.5053 23.7193 33.4416C23.8418 33.377 23.9337 33.2666 23.975 33.1344C24.0162 33.0022 24.0035 32.859 23.9395 32.7362L19.4651 24.1954C20.5129 23.5776 21.4797 22.8317 22.343 21.9748C22.8315 21.4854 23.1059 20.8221 23.1059 20.1305C23.1059 19.4389 22.8315 18.7756 22.343 18.2861C21.3569 17.3001 19.6362 17.3021 18.6543 18.2861C18.1607 18.7797 17.6171 19.2044 17.0421 19.5696L14.5816 14.8729C15.5343 14.1122 16.1583 12.9561 16.1583 11.6455C16.1583 9.36023 14.2988 7.49971 12.0125 7.49971C9.72628 7.49971 7.86993 9.36023 7.86993 11.6465C7.86993 12.9561 8.49184 14.1112 9.44245 14.8719L6.97671 19.5655C6.39769 19.1987 5.86027 18.7701 5.37393 18.2872C4.38784 17.3011 2.66715 17.3032 1.68523 18.2872C1.19669 18.7767 0.922307 19.44 0.922307 20.1315C0.922307 20.8231 1.19669 21.4864 1.68523 21.9759C2.54473 22.829 3.50688 23.5721 4.54958 24.1881L0.0605391 32.7362C0.0285589 32.7968 0.00885779 32.8632 0.00256565 32.9314C-0.0037265 32.9997 0.00351406 33.0685 0.0238721 33.1339C0.0442302 33.1993 0.0773053 33.2601 0.121201 33.3127C0.165096 33.3654 0.218948 33.4088 0.27967 33.4406ZM3.52906 18.5658C3.9475 18.5658 4.34089 18.7286 4.63723 19.0239C6.60523 20.9919 9.22436 22.075 12.0146 22.075C14.8049 22.075 17.4261 20.9919 19.3941 19.0239C19.9847 18.4322 21.0167 18.4343 21.6073 19.0239C21.9005 19.3175 22.0652 19.7155 22.0652 20.1305C22.0652 20.5455 21.9005 20.9434 21.6073 21.2371C20.3499 22.4995 18.8547 23.5002 17.2082 24.1811C15.5616 24.8621 13.7964 25.2099 12.0146 25.2044C10.2331 25.2101 8.46815 24.8624 6.82192 24.1814C5.17568 23.5005 3.68087 22.4997 2.42402 21.2371C2.20596 21.0181 2.05758 20.7394 1.99755 20.4363C1.93753 20.1331 1.96853 19.8189 2.08667 19.5333C2.20482 19.2477 2.40481 19.0035 2.66147 18.8313C2.91814 18.6592 3.22 18.5668 3.52906 18.5658ZM8.91341 11.6465C8.91341 9.93623 10.3044 8.54423 12.0146 8.54423C13.7249 8.54423 15.1169 9.93623 15.1169 11.6465C15.1169 13.3568 13.7249 14.7488 12.0146 14.7488C10.3044 14.7488 8.91341 13.3557 8.91341 11.6465ZM10.3294 15.426C10.859 15.6657 11.4333 15.7905 12.0146 15.7922C12.6136 15.7922 13.1802 15.6587 13.6946 15.4291L16.1311 20.0799C14.8479 20.7078 13.4381 21.0339 12.0094 21.0332C10.5808 21.0325 9.17129 20.705 7.88871 20.0757L10.3294 15.426Z" fill="#A0A2A9"/>
</svg>
