<svg width="24" height="24" viewBox="0 0 24 24" fill="none" xmlns="http://www.w3.org/2000/svg">
<g clip-path="url(#clip0_263_323)">
<path d="M8.74133 13.9514H2.49682C1.1198 13.9514 0 12.8306 0 11.4536V2.64965C0 1.27264 1.1198 0.151855 2.49682 0.151855H8.74132C10.1183 0.151855 11.2391 1.27264 11.2391 2.64965V11.4536C11.2391 12.8306 10.1183 13.9514 8.74132 13.9514H8.74133ZM2.49682 1.15332C1.67237 1.15332 1.00147 1.82423 1.00147 2.64965V11.4536C1.00147 12.279 1.67237 12.9499 2.49682 12.9499H8.74132C9.56674 12.9499 10.2376 12.279 10.2376 11.4536V2.64965C10.2376 1.82423 9.56674 1.15332 8.74132 1.15332H2.49682Z" fill="#A0A2A9"/>
<path d="M21.5032 23.8478H15.2587C13.8816 23.8478 12.7609 22.7271 12.7609 21.35V12.5461C12.7609 11.1691 13.8816 10.0493 15.2587 10.0493H21.5032C22.8802 10.0493 24 11.1691 24 12.5461V21.3501C24 22.7271 22.8802 23.8479 21.5032 23.8479V23.8478ZM15.2587 11.0508C14.4332 11.0508 13.7623 11.7217 13.7623 12.5461V21.35C13.7623 22.1755 14.4332 22.8464 15.2587 22.8464H21.5032C22.3276 22.8464 22.9985 22.1755 22.9985 21.35V12.5461C22.9985 11.7217 22.3276 11.0508 21.5032 11.0508H15.2587V11.0508Z" fill="#A0A2A9"/>
<path d="M21.5032 8.34452H15.2587C13.8816 8.34452 12.7609 7.22374 12.7609 5.84672V2.64965C12.7609 1.27264 13.8816 0.151855 15.2587 0.151855H21.5032C22.8802 0.151855 24 1.27264 24 2.64965V5.84672C24 7.22374 22.8802 8.34452 21.5032 8.34452ZM15.2587 1.15332C14.4332 1.15332 13.7623 1.82423 13.7623 2.64965V5.84672C13.7623 6.67215 14.4332 7.34305 15.2587 7.34305H21.5032C22.3276 7.34305 22.9985 6.67215 22.9985 5.84672V2.64965C22.9985 1.82423 22.3276 1.15332 21.5032 1.15332H15.2587Z" fill="#A0A2A9"/>
<path d="M8.74133 23.8479H2.49682C1.1198 23.8479 0 22.7272 0 21.3501V18.1531C0 16.7761 1.1198 15.6553 2.49682 15.6553H8.74132C10.1183 15.6553 11.2391 16.7761 11.2391 18.1531V21.3501C11.2391 22.7272 10.1183 23.8479 8.74132 23.8479H8.74133ZM2.49683 16.6567C1.67238 16.6567 1.00148 17.3276 1.00148 18.1531V21.3501C1.00148 22.1756 1.67238 22.8465 2.49683 22.8465H8.74133C9.56676 22.8465 10.2377 22.1756 10.2377 21.3501V18.1531C10.2377 17.3276 9.56676 16.6567 8.74133 16.6567H2.49682H2.49683Z" fill="#A0A2A9"/>
</g>
<defs>
<clipPath id="clip0_263_323">
<rect width="24" height="23.6958" fill="white" transform="translate(0 0.151855)"/>
</clipPath>
</defs>
</svg>
