<svg width="24" height="25" viewBox="0 0 24 25" fill="none" xmlns="http://www.w3.org/2000/svg">
<path d="M18.9761 16.4069C18.3353 16.4102 17.7033 16.5572 17.1269 16.8373C16.5504 17.1174 16.0442 17.5233 15.6456 18.0251L9.38691 14.1124C9.61501 13.3762 9.61501 12.5882 9.38691 11.8521L15.6456 7.93931C16.2808 8.7259 17.174 9.26226 18.1668 9.45339C19.1596 9.64451 20.1881 9.47806 21.0699 8.98353C21.9518 8.48899 22.6302 7.69829 22.9849 6.75148C23.3396 5.80468 23.3477 4.76289 23.0079 3.81066C22.668 2.85843 22.0021 2.05722 21.128 1.54897C20.254 1.04072 19.2283 0.858221 18.2326 1.03381C17.2369 1.2094 16.3355 1.73175 15.688 2.50831C15.0406 3.28488 14.6889 4.26554 14.6952 5.27659C14.6993 5.65945 14.7569 6.03987 14.8665 6.40674L8.60778 10.3195C8.05524 9.62392 7.3 9.11746 6.44674 8.87032C5.59348 8.62318 4.68447 8.6476 3.84571 8.9402C3.00696 9.23279 2.27999 9.77907 1.7656 10.5033C1.2512 11.2276 0.974854 12.0939 0.974854 12.9822C0.974854 13.8705 1.2512 14.7369 1.7656 15.4611C2.27999 16.1854 3.00696 16.7316 3.84571 17.0242C4.68447 17.3168 5.59348 17.3413 6.44674 17.0941C7.3 16.847 8.05524 16.3405 8.60778 15.6449L14.8665 19.5577C14.7569 19.9246 14.6993 20.305 14.6952 20.6878C14.6952 21.5345 14.9463 22.3622 15.4167 23.0662C15.8871 23.7702 16.5557 24.3189 17.3379 24.6429C18.1201 24.9669 18.9809 25.0517 19.8113 24.8865C20.6417 24.7213 21.4045 24.3136 22.0032 23.7149C22.6019 23.1162 23.0096 22.3534 23.1748 21.523C23.34 20.6926 23.2552 19.8318 22.9312 19.0496C22.6072 18.2674 22.0585 17.5988 21.3545 17.1284C20.6505 16.658 19.8228 16.4069 18.9761 16.4069V16.4069ZM18.9761 2.70804C19.4841 2.70804 19.9807 2.85869 20.4031 3.14092C20.8255 3.42316 21.1548 3.82431 21.3492 4.29365C21.5436 4.76299 21.5944 5.27943 21.4953 5.77768C21.3962 6.27593 21.1516 6.7336 20.7924 7.09282C20.4332 7.45204 19.9755 7.69667 19.4772 7.79577C18.979 7.89488 18.4625 7.84402 17.9932 7.64961C17.5239 7.4552 17.1227 7.12599 16.8405 6.70359C16.5582 6.2812 16.4076 5.7846 16.4076 5.27659C16.4076 4.59537 16.6782 3.94205 17.1599 3.46035C17.6416 2.97866 18.2949 2.70804 18.9761 2.70804V2.70804ZM5.27724 15.5508C4.76923 15.5508 4.27263 15.4001 3.85023 15.1179C3.42784 14.8356 3.09862 14.4345 2.90421 13.9652C2.70981 13.4958 2.65894 12.9794 2.75805 12.4811C2.85716 11.9829 3.10179 11.5252 3.461 11.166C3.82022 10.8068 4.27789 10.5621 4.77614 10.463C5.27439 10.3639 5.79084 10.4148 6.26018 10.6092C6.72952 10.8036 7.13067 11.1328 7.4129 11.5552C7.69514 11.9776 7.84578 12.4742 7.84578 12.9822C7.84578 13.6634 7.57517 14.3168 7.09347 14.7984C6.61178 15.2801 5.95846 15.5508 5.27724 15.5508ZM18.9761 23.2564C18.4681 23.2564 17.9715 23.1057 17.5491 22.8235C17.1267 22.5413 16.7975 22.1401 16.6031 21.6708C16.4087 21.2014 16.3578 20.685 16.4569 20.1867C16.5561 19.6885 16.8007 19.2308 17.1599 18.8716C17.5191 18.5124 17.9768 18.2678 18.475 18.1687C18.9733 18.0695 19.4897 18.1204 19.9591 18.3148C20.4284 18.5092 20.8296 18.8384 21.1118 19.2608C21.394 19.6832 21.5447 20.1798 21.5447 20.6878C21.5447 21.3691 21.2741 22.0224 20.7924 22.5041C20.3107 22.9858 19.6574 23.2564 18.9761 23.2564V23.2564Z" fill="#A0A2A9"/>
</svg>
