<svg width="24" height="25" viewBox="0 0 24 25" fill="none" xmlns="http://www.w3.org/2000/svg">
<path d="M0.192002 11.4239C0.276204 11.484 0.376548 11.5175 0.480002 11.5199C0.554197 11.5181 0.627088 11.5 0.693468 11.4668C0.759848 11.4336 0.81808 11.3862 0.864002 11.3279C1.48995 10.4933 2.30162 9.81586 3.23473 9.3493C4.16783 8.88275 5.19675 8.63985 6.24 8.63985C7.28325 8.63985 8.31217 8.88275 9.24528 9.3493C10.1784 9.81586 10.9901 10.4933 11.616 11.3279H11.628L11.664 11.3639L11.7 11.3999C11.7 11.403 11.7013 11.4061 11.7035 11.4083C11.7058 11.4106 11.7088 11.4119 11.712 11.4119L11.748 11.4359H11.76L11.832 11.4719H11.844L11.928 11.4959H12.108L12.204 11.4599H12.228L12.288 11.4239H12.3L12.324 11.3999L12.372 11.3519H12.384C13.0099 10.5173 13.8216 9.83985 14.7547 9.3733C15.6878 8.90675 16.7168 8.66385 17.76 8.66385C18.8032 8.66385 19.8322 8.90675 20.7653 9.3733C21.6984 9.83985 22.51 10.5173 23.136 11.3519C23.2124 11.4537 23.3261 11.521 23.4521 11.539C23.5781 11.557 23.7062 11.5242 23.808 11.4479C23.9098 11.3715 23.9772 11.2578 23.9952 11.1317C24.0132 11.0057 23.9804 10.8777 23.904 10.7759C22.9328 9.46738 21.5649 8.50771 20.004 8.03985C20.8095 7.55021 21.4327 6.81056 21.7786 5.9337C22.1245 5.05684 22.1741 4.0909 21.9199 3.18321C21.6657 2.27552 21.1215 1.4759 20.3704 0.906303C19.6194 0.336705 18.7026 0.0283946 17.76 0.0283946C16.8174 0.0283946 15.9006 0.336705 15.1496 0.906303C14.3985 1.4759 13.8543 2.27552 13.6001 3.18321C13.3459 4.0909 13.3955 5.05684 13.7414 5.9337C14.0873 6.81056 14.7105 7.55021 15.516 8.03985C14.157 8.44393 12.9388 9.22144 12 10.2839C11.0643 9.21263 9.84575 8.42662 8.484 8.01585C9.28948 7.52621 9.9127 6.78656 10.2586 5.9097C10.6045 5.03284 10.6541 4.0669 10.3999 3.15921C10.1457 2.25152 9.60151 1.4519 8.85044 0.882303C8.09938 0.312705 7.18262 0.00439453 6.24 0.00439453C5.29738 0.00439453 4.38062 0.312705 3.62956 0.882303C2.8785 1.4519 2.33435 2.25152 2.0801 3.15921C1.82586 4.0669 1.87548 5.03284 2.22139 5.9097C2.56731 6.78656 3.19053 7.52621 3.996 8.01585C2.43511 8.48371 1.06717 9.44338 0.096002 10.7519C0.0196196 10.8537 -0.0131773 10.9817 0.0048262 11.1077C0.0228297 11.2338 0.090159 11.3475 0.192002 11.4239ZM14.4 4.31985C14.4 3.65531 14.5971 3.00569 14.9663 2.45314C15.3355 1.90059 15.8602 1.46993 16.4742 1.21562C17.0881 0.961307 17.7637 0.894768 18.4155 1.02441C19.0673 1.15406 19.666 1.47407 20.1359 1.94397C20.6058 2.41388 20.9258 3.01257 21.0554 3.66435C21.1851 4.31612 21.1185 4.99171 20.8642 5.60567C20.6099 6.21963 20.1793 6.74439 19.6267 7.11359C19.0742 7.48279 18.4245 7.67985 17.76 7.67985C16.8698 7.67669 16.0171 7.32167 15.3876 6.69224C14.7582 6.0628 14.4032 5.21001 14.4 4.31985ZM2.88 4.31985C2.88 3.65531 3.07706 3.00569 3.44626 2.45314C3.81546 1.90059 4.34023 1.46993 4.95419 1.21562C5.56815 0.961307 6.24373 0.894768 6.8955 1.02441C7.54728 1.15406 8.14598 1.47407 8.61588 1.94397C9.08578 2.41388 9.40579 3.01257 9.53544 3.66435C9.66509 4.31612 9.59855 4.99171 9.34424 5.60567C9.08993 6.21963 8.65927 6.74439 8.10672 7.11359C7.55417 7.48279 6.90455 7.67985 6.24 7.67985C5.34985 7.67669 4.49705 7.32167 3.86762 6.69224C3.23818 6.0628 2.88316 5.21001 2.88 4.31985ZM20.004 20.4959C20.8095 20.0062 21.4327 19.2666 21.7786 18.3897C22.1245 17.5128 22.1741 16.5469 21.9199 15.6392C21.6657 14.7315 21.1215 13.9319 20.3704 13.3623C19.6194 12.7927 18.7026 12.4844 17.76 12.4844C16.8174 12.4844 15.9006 12.7927 15.1496 13.3623C14.3985 13.9319 13.8543 14.7315 13.6001 15.6392C13.3459 16.5469 13.3955 17.5128 13.7414 18.3897C14.0873 19.2666 14.7105 20.0062 15.516 20.4959C14.1542 20.9066 12.9357 21.6926 12 22.7638C11.0643 21.6926 9.84575 20.9066 8.484 20.4959C9.28948 20.0062 9.9127 19.2666 10.2586 18.3897C10.6045 17.5128 10.6541 16.5469 10.3999 15.6392C10.1457 14.7315 9.60151 13.9319 8.85044 13.3623C8.09938 12.7927 7.18262 12.4844 6.24 12.4844C5.29738 12.4844 4.38062 12.7927 3.62956 13.3623C2.8785 13.9319 2.33435 14.7315 2.0801 15.6392C1.82586 16.5469 1.87548 17.5128 2.22139 18.3897C2.56731 19.2666 3.19053 20.0062 3.996 20.4959C2.43511 20.9637 1.06717 21.9234 0.096002 23.2319C0.0196196 23.3337 -0.0131773 23.4617 0.0048262 23.5877C0.0228297 23.7138 0.090159 23.8275 0.192002 23.9039C0.276204 23.964 0.376548 23.9975 0.480002 23.9998C0.554197 23.9981 0.627088 23.98 0.693468 23.9468C0.759848 23.9136 0.81808 23.8662 0.864002 23.8078C1.48995 22.9733 2.30162 22.2959 3.23473 21.8293C4.16783 21.3627 5.19675 21.1199 6.24 21.1199C7.28325 21.1199 8.31217 21.3627 9.24528 21.8293C10.1784 22.2959 10.9901 22.9733 11.616 23.8078H11.628L11.664 23.8438L11.7 23.8799H11.712L11.748 23.9039H11.76L11.844 23.9398L11.928 23.9639H12.108L12.204 23.9278H12.228L12.288 23.8919H12.3L12.324 23.8678L12.372 23.8199H12.384C13.0099 22.9853 13.8216 22.3079 14.7547 21.8413C15.6878 21.3747 16.7168 21.1319 17.76 21.1319C18.8032 21.1319 19.8322 21.3747 20.7653 21.8413C21.6984 22.3079 22.51 22.9853 23.136 23.8199C23.2124 23.9217 23.3261 23.989 23.4521 24.007C23.5781 24.025 23.7062 23.9922 23.808 23.9158C23.9098 23.8395 23.9772 23.7258 23.9952 23.5997C24.0132 23.4737 23.9804 23.3457 23.904 23.2438C22.9347 21.9309 21.5665 20.9669 20.004 20.4959ZM2.88 16.7999C2.88 16.1353 3.07706 15.4857 3.44626 14.9331C3.81546 14.3806 4.34023 13.9499 4.95419 13.6956C5.56815 13.4413 6.24373 13.3748 6.8955 13.5044C7.54728 13.6341 8.14598 13.9541 8.61588 14.424C9.08578 14.8939 9.40579 15.4926 9.53544 16.1443C9.66509 16.7961 9.59855 17.4717 9.34424 18.0857C9.08993 18.6996 8.65927 19.2244 8.10672 19.5936C7.55417 19.9628 6.90455 20.1599 6.24 20.1599C5.34985 20.1567 4.49705 19.8017 3.86762 19.1722C3.23818 18.5428 2.88316 17.69 2.88 16.7999ZM14.4 16.7999C14.4 16.1353 14.5971 15.4857 14.9663 14.9331C15.3355 14.3806 15.8602 13.9499 16.4742 13.6956C17.0881 13.4413 17.7637 13.3748 18.4155 13.5044C19.0673 13.6341 19.666 13.9541 20.1359 14.424C20.6058 14.8939 20.9258 15.4926 21.0554 16.1443C21.1851 16.7961 21.1185 17.4717 20.8642 18.0857C20.6099 18.6996 20.1793 19.2244 19.6267 19.5936C19.0742 19.9628 18.4245 20.1599 17.76 20.1599C16.8698 20.1567 16.0171 19.8017 15.3876 19.1722C14.7582 18.5428 14.4032 17.69 14.4 16.7999Z" fill="#A0A2A9"/>
</svg>
